<svg width="512" height="512" viewBox="0 0 512 512" fill="none" xmlns="http://www.w3.org/2000/svg">
  <rect width="512" height="512" rx="120" fill="url(#gradient)"/>
  <defs>
    <linearGradient id="gradient" x1="0" y1="0" x2="0" y2="512" gradientUnits="userSpaceOnUse">
      <stop stop-color="#4FFBDF"/>
      <stop offset="1" stop-color="#4FB5FB"/>
    </linearGradient>
  </defs>
  <!-- House outline -->
  <path d="M256 120L152 200V300H360V200L256 120Z" stroke="#2563EB" stroke-width="24" fill="white" stroke-linejoin="round"/>
  <!-- Chimney -->
  <rect x="292" y="120" width="24" height="40" fill="#2563EB" rx="4"/>
  <!-- Shield with cross -->
  <path d="M256 190C256 190 220 195 220 220V260C220 285 256 300 256 300C256 300 292 285 292 260V220C292 195 256 190 256 190Z" fill="url(#shieldGradient)" stroke="#2563EB" stroke-width="8"/>
  <defs>
    <linearGradient id="shieldGradient" x1="256" y1="190" x2="256" y2="300" gradientUnits="userSpaceOnUse">
      <stop stop-color="#4FB5FB"/>
      <stop offset="1" stop-color="#2563EB"/>
    </linearGradient>
  </defs>
  <!-- Cross on shield -->
  <path d="M256 215V275M236 245H276" stroke="white" stroke-width="8" stroke-linecap="round"/>
</svg>